<?xml version="1.0" encoding="UTF-8" standalone="no"?>
<svg
   width="32"
   height="32"
   version="1.1"
   viewBox="0 0 32 32"
   id="svg2"
   sodipodi:docname="zeal-tray.svg"
   inkscape:version="1.4.4 (dcaf3e7d9e, 2026-05-05)"
   xmlns:inkscape="http://www.inkscape.org/namespaces/inkscape"
   xmlns:sodipodi="http://sodipodi.sourceforge.net/DTD/sodipodi-0.dtd"
   xmlns:xlink="http://www.w3.org/1999/xlink"
   xmlns="http://www.w3.org/2000/svg"
   xmlns:svg="http://www.w3.org/2000/svg">
  <sodipodi:namedview
     id="namedview2"
     pagecolor="#505050"
     bordercolor="#eeeeee"
     borderopacity="1"
     inkscape:showpageshadow="0"
     inkscape:pageopacity="0"
     inkscape:pagecheckerboard="0"
     inkscape:deskcolor="#505050"
     inkscape:zoom="30.125483"
     inkscape:cx="11.352515"
     inkscape:cy="17.891829"
     inkscape:current-layer="svg2"
     showguides="true"
     showgrid="true">
    <sodipodi:guide
       position="25.99997,1.5"
       orientation="1,0"
       id="guide4"
       inkscape:locked="false" />
    <inkscape:grid
       id="grid4"
       units="px"
       originx="0"
       originy="0"
       spacingx="1"
       spacingy="1"
       empcolor="#0099e5"
       empopacity="0.30196078"
       color="#0099e5"
       opacity="0.14902"
       empspacing="2"
       enabled="true"
       visible="true" />
  </sodipodi:namedview>
  <defs
     id="defs1">
    <inkscape:path-effect
       effect="fillet_chamfer"
       id="path-effect4"
       is_visible="true"
       lpeversion="1"
       nodesatellites_param="F,0,0,1,0,0,0,1 @ F,0,0,1,0,0,0,1 @ F,0,0,1,0,1.5,0,1 @ F,0,0,1,0,0,0,1"
       radius="0"
       unit="px"
       method="auto"
       mode="F"
       chamfer_steps="1"
       flexible="false"
       use_knot_distance="true"
       apply_no_radius="true"
       apply_with_radius="true"
       only_selected="false"
       hide_knots="false" />
    <style
       id="current-color-scheme"
       type="text/css">.ColorScheme-Text { color:#232629; }.symbolic-stroke { fill:none; paint-order:fill markers stroke; stroke-linecap:round; stroke-linejoin:round; }</style>
  </defs>
  <path
     class="ColorScheme-Text symbolic-stroke"
     fill="none"
     d="m 9,1.5 h 16 c 0.828427,0 1.5,0.6715729 1.5,1.5 v 21 c 0,0.828427 -0.671573,1.5 -1.5,1.5 H 9.246 C 8.760618,25.499996 8.2949956,25.307746 7.951,24.96531 7.6921748,24.707666 7.2740811,24.706792 7.01414,24.96331 L 6.988624,24.98849 C 6.6564926,25.316248 6.2086462,25.500021 5.742024,25.5 h -0.74205 c -0.8284271,0 -1.5,-0.671573 -1.5,-1.5 V 3 c 0,-0.8284271 0.6715729,-1.5 1.5,-1.5 h 1 c 0.8284271,0 1.5,0.6715729 1.5,1.5 v 20"
     stroke="currentColor"
     id="path1"
     sodipodi:nodetypes="csssscssscssssssc"
     transform="translate(1,1)" />
  <path
     class="ColorScheme-Text symbolic-stroke"
     fill="none"
     d="m12.9 8.5h7.2597a1.0854 1.0854 65.118 01.82859 1.7865l-7.9766 9.4269a1.0854 1.0854 65.118 00.82859 1.7865h7.3597"
     stroke="currentColor"
     id="path2"
     transform="translate(1,1)" />
  <path
     class="ColorScheme-Text symbolic-stroke"
     fill="none"
     d="M 27.5,30.5 H 10.246 C 9.760618,30.499996 9.2949956,30.307746 8.951,29.96531 8.6921748,29.707666 8.2740813,29.706792 8.01414,29.96331 L 7.988624,29.98849 C 7.6564927,30.316248 7.2086462,30.500021 6.742024,30.5 h -0.74205 c -0.8284271,0 -1.5,-0.671573 -1.5,-1.5 v -4"
     stroke="currentColor"
     id="path3"
     sodipodi:nodetypes="ccssscssc" />
  <path
     class="ColorScheme-Text symbolic-stroke"
     fill="none"
     d="M 26.49997,29 V 28"
     stroke="currentColor"
     id="path4"
     sodipodi:nodetypes="cc" />
  <use
     x="0"
     y="0"
     xlink:href="#path4"
     id="use4"
     transform="translate(-18,-0.6)"
     style="opacity:0.517028" />
</svg>
